<?xml version="1.0" encoding="UTF-8" standalone="no"?>
<!-- Created with Inkscape (http://www.inkscape.org/) -->

<svg
   xmlns:dc="http://purl.org/dc/elements/1.1/"
   xmlns:cc="http://creativecommons.org/ns#"
   xmlns:rdf="http://www.w3.org/1999/02/22-rdf-syntax-ns#"
   xmlns:svg="http://www.w3.org/2000/svg"
   xmlns="http://www.w3.org/2000/svg"
   xmlns:sodipodi="http://sodipodi.sourceforge.net/DTD/sodipodi-0.dtd"
   xmlns:inkscape="http://www.inkscape.org/namespaces/inkscape"
   width="390.46124"
   height="398.60651"
   id="svg3001"
   version="1.1"
   inkscape:version="0.92.0 r15299"
   sodipodi:docname="logo.svg"
   inkscape:export-filename="/home/meka/logo.png"
   inkscape:export-xdpi="23.790001"
   inkscape:export-ydpi="23.790001"
   viewBox="0 0 366.0574 373.69361">
  <defs
     id="defs3003" />
  <sodipodi:namedview
     id="base"
     pagecolor="#ffffff"
     bordercolor="#666666"
     borderopacity="1.0"
     inkscape:pageopacity="0.0"
     inkscape:pageshadow="2"
     inkscape:zoom="0.98994949"
     inkscape:cx="350.3754"
     inkscape:cy="327.7825"
     inkscape:document-units="px"
     inkscape:current-layer="layer1"
     showgrid="false"
     inkscape:window-width="1676"
     inkscape:window-height="1011"
     inkscape:window-x="0"
     inkscape:window-y="18"
     inkscape:window-maximized="0"
     fit-margin-top="0"
     fit-margin-left="0"
     fit-margin-right="0"
     fit-margin-bottom="0" />
  <metadata
     id="metadata3006">
    <rdf:RDF>
      <cc:Work
         rdf:about="">
        <dc:format>image/svg+xml</dc:format>
        <dc:type
           rdf:resource="http://purl.org/dc/dcmitype/StillImage" />
        <dc:title></dc:title>
      </cc:Work>
    </rdf:RDF>
  </metadata>
  <g
     inkscape:label="Layer 1"
     inkscape:groupmode="layer"
     id="layer1"
     transform="translate(-194.83148,-269.84105)">
    <g
       id="g4492"
       transform="translate(35.986684,225.39029)">
      <path
         sodipodi:open="true"
         sodipodi:end="2.6179939"
         sodipodi:start="3.6651914"
         d="M 170.76963,143.80306 A 183.43567,174.98901 0 0 1 377.10622,62.271153 183.43567,174.98901 0 0 1 513.06525,231.29756 183.43567,174.98901 0 0 1 377.10622,400.32397 183.43567,174.98901 0 0 1 170.76963,318.79207"
         sodipodi:ry="174.98901"
         sodipodi:rx="183.43567"
         sodipodi:cy="231.29756"
         sodipodi:cx="329.62958"
         id="path2985-3"
         style="display:inline;fill:#000000;fill-opacity:0;fill-rule:evenodd;stroke:#000000;stroke-width:23.67394066;stroke-linecap:round;stroke-miterlimit:4;stroke-dasharray:none;stroke-opacity:1"
         sodipodi:type="arc" />
      <path
         sodipodi:open="true"
         sodipodi:end="2.6179939"
         sodipodi:start="3.6651914"
         d="M 213.32038,168.79399 A 133.10059,126.97171 0 0 1 363.03783,109.63459 133.10059,126.97171 0 0 1 461.68945,232.27985 133.10059,126.97171 0 0 1 363.03783,354.9251 133.10059,126.97171 0 0 1 213.32038,295.7657"
         sodipodi:ry="126.97171"
         sodipodi:rx="133.10059"
         sodipodi:cy="232.27985"
         sodipodi:cx="328.58887"
         id="path2985-2-7"
         style="display:inline;fill:#000000;fill-opacity:0;fill-rule:evenodd;stroke:#010000;stroke-width:23.67394066;stroke-linecap:round;stroke-miterlimit:4;stroke-dasharray:none;stroke-opacity:1"
         sodipodi:type="arc" />
      <g
         id="text3806-8"
         style="font-style:normal;font-variant:normal;font-weight:bold;font-stretch:normal;font-size:296.91589355px;line-height:100%;font-family:Sans;-inkscape-font-specification:'Sans, Bold';text-align:start;letter-spacing:0px;word-spacing:0px;writing-mode:lr-tb;text-anchor:start;display:inline;fill:#000000;fill-opacity:1;stroke:none;stroke-width:3.88287997;stroke-miterlimit:4;stroke-dasharray:none;stroke-opacity:0.89820359"
         transform="matrix(1.1207807,0,0,0.89223525,-21.882197,-307.668)">
        <path
           sodipodi:nodetypes="ccscccccsccsccc"
           inkscape:connector-curvature="0"
           id="path21125"
           style="font-style:normal;font-variant:normal;font-weight:bold;font-stretch:normal;font-size:296.91589355px;line-height:100%;font-family:Sans;-inkscape-font-specification:'Sans, Bold';text-align:start;writing-mode:lr-tb;text-anchor:start;fill:#000000;fill-opacity:1;stroke:none;stroke-width:3.88287997;stroke-miterlimit:4;stroke-dasharray:none;stroke-opacity:0.89820359"
           d="m 394.13367,592.24849 c 6.12666,12.7894 -2.56299,21.51013 -15.98822,27.22998 -8.60205,3.28618 -24.16419,8.98233 -42.32578,7.50924 -10.3643,-0.84065 -26.47086,-7.34579 -39.33617,-18.15524 -13.50726,-7.94013 -22.43802,-9.58593 -37.52988,-7.23025 -8.5054,0 -19.11271,7.14524 -27.42481,10.91468 0,0 -9.42909,4.37697 -13.28393,-0.0161 -10.97379,-13.06558 5.58551,-22.60249 14.06771,-28.33958 9.87667,-5.38422 15.59842,-7.53281 25.51437,-9.13393 10.25739,-1.65625 27.03417,-0.0191 40.85545,5.58669 2.14317,0.8572 4.58482,1.89146 6.37905,2.60961 14.98111,5.89579 20.54622,17.58949 36.64195,19.1906 13.05108,1.29825 29.16443,-9.17139 37.28322,-12.74752 7.73745,-3.77287 12.86594,-0.22458 15.14704,2.58186 z" />
      </g>
    </g>
  </g>
</svg>
